<svg xmlns="http://www.w3.org/2000/svg" viewBox="0 0 285.7 58.8">
  <style type="text/css">
    .st0 {
      fill: #da2629;
    }
    .st1 {
      fill: #98c174;
    }
  </style>

  <g>
    <path
      class="st0"
      d="M149,13.6v31.6l-26.1-29.4c-1.3-1.4-3-2.2-4.8-2.2H110v44.2h10.6V18l0.7,5.9c0.3,2.6,1.4,5,3,6.9l1,1.1
		l21,23.7c1.3,1.4,3,2.2,4.8,2.2h8.5V13.6H149z"
    />

    <path
      class="st0"
      d="M271.3,13.1h-37.5v44.7h10.6V19h21.4c4,0,7.3,3.5,7.3,7.9s-3.3,7.9-7.3,7.9h-18.7l4.8,5.9h19.3
		c7.1,0,12.8-6.2,12.8-13.9S278.4,13.1,271.3,13.1z"
    />

    <rect x="216.6" y="13.6" class="st0" width="10.6" height="44.2" />

    <path
      class="st0"
      d="M44.6,16.4L33,29.8c-1.2,1.4-1.5,3.4-0.7,5.1l1.4,2.9l-0.1-0.1L12,13.1H0l19.8,22.7c2.6,3,4.1,6.9,4.1,11v10.9
		h11.7V46.9c0-4.1,1.4-8.1,4.1-11l19.8-22.7h-7.9C49,13.1,46.4,14.3,44.6,16.4z"
    />

    <path
      class="st0"
      d="M262.8,40.8c6,0,8,7.2,9,9.8c1.1,2.8,2.7,7.5,2.7,7.5h11.2c-2-4.9-4-9.4-5-11.7c-1.2-2.6-3.3-5.6-5.7-6.7
		C272.8,38.5,262.8,40.8,262.8,40.8z"
    />

    <path
      class="st0"
      d="M83.7,16.9c-1.2-2.1-3.3-3.3-5.6-3.3h-7.5L44.4,57.8h11l20.8-35.1L86.4,40H68l3.6,5.9h18.2l7.1,12h11
		L83.7,16.9z"
    />

    <path
      class="st1"
      d="M71,0h-6.4c-3.6,0-7,1.6-9.4,4.4l-5,5.7h6.4c3.6,0,7-1.6,9.4-4.4L71,0z"
    />

    <path
      class="st0"
      d="M186.6,12.6c-11.6,0.7-21,10.3-21.6,21.9c-0.4,8.5,3.7,16,10.1,20.4c-1-5,2-15,14.4-22.5
		c-6.3,1.4-13.5,6.3-15.7,13.7c-5-10.4,4.2-25.3,24.6-22.9c-3.3,10.9,1.7,20.3-8.9,24.9c-4.8,2.1-9,3.3-10.8,5.2
		c-1.2,1.3-0.6,3.4,1,4c3.1,1.2,6.6,1.7,10.2,1.4c11.4-0.9,20.5-10.2,21.2-21.6C212.1,23.2,200.5,11.7,186.6,12.6z"
    />
  </g>
</svg>
